<?xml version="1.0" ?><svg fill="none" height="24" viewBox="0 0 24 24" width="24" xmlns="http://www.w3.org/2000/svg"><g id="Car Location"><path clip-rule="evenodd" d="M15.25 19C15.25 18.5858 15.5858 18.25 16 18.25H21C21.4142 18.25 21.75 18.5858 21.75 19C21.75 19.4142 21.4142 19.75 21 19.75H16C15.5858 19.75 15.25 19.4142 15.25 19Z" fill="black" fill-rule="evenodd" id="Vector 18 (Stroke)"/><path clip-rule="evenodd" d="M18.5 5.75C16.4289 5.75 14.75 7.42893 14.75 9.5C14.75 9.93369 14.9593 10.5792 15.37 11.3771C15.7682 12.1508 16.3074 12.9772 16.8589 13.7441C17.4085 14.5083 17.9597 15.1988 18.3743 15.699C18.4178 15.7515 18.4597 15.8018 18.5 15.8499C18.5403 15.8018 18.5822 15.7515 18.6257 15.699C19.0403 15.1988 19.5915 14.5083 20.1411 13.7441C20.6926 12.9772 21.2318 12.1508 21.63 11.3771C22.0407 10.5792 22.25 9.93369 22.25 9.5C22.25 7.42893 20.5711 5.75 18.5 5.75ZM18.5 17C17.9418 17.5009 17.9417 17.5008 17.9416 17.5007L17.9376 17.4962L17.9269 17.4842L17.8872 17.4394C17.8528 17.4005 17.803 17.3437 17.7399 17.2709C17.6137 17.1253 17.4343 16.9155 17.2194 16.6562C16.7903 16.1385 16.2165 15.42 15.6411 14.6199C15.0676 13.8225 14.4818 12.9292 14.0363 12.0636C13.6032 11.2223 13.25 10.309 13.25 9.5C13.25 6.6005 15.6005 4.25 18.5 4.25C21.3995 4.25 23.75 6.6005 23.75 9.5C23.75 10.309 23.3968 11.2223 22.9637 12.0636C22.5182 12.9292 21.9324 13.8225 21.3589 14.6199C20.7835 15.42 20.2097 16.1385 19.7806 16.6562C19.5657 16.9155 19.3863 17.1253 19.2601 17.2709C19.197 17.3437 19.1472 17.4005 19.1128 17.4394L19.0731 17.4842L19.0624 17.4962L19.0587 17.5004C19.0586 17.5005 19.0582 17.5009 18.5 17ZM18.5 17L19.0587 17.5004C18.9164 17.6589 18.713 17.75 18.5 17.75C18.287 17.75 18.0839 17.6592 17.9416 17.5007L18.5 17Z" fill="black" fill-rule="evenodd" id="Ellipse 21 (Stroke)"/><path clip-rule="evenodd" d="M18.5 8.19858C17.8096 8.19858 17.25 8.75822 17.25 9.44858C17.25 10.1389 17.8096 10.6986 18.5 10.6986C19.1904 10.6986 19.75 10.1389 19.75 9.44858C19.75 8.75822 19.1904 8.19858 18.5 8.19858ZM15.75 9.44858C15.75 7.92979 16.9812 6.69858 18.5 6.69858C20.0188 6.69858 21.25 7.92979 21.25 9.44858C21.25 10.9674 20.0188 12.1986 18.5 12.1986C16.9812 12.1986 15.75 10.9674 15.75 9.44858Z" fill="black" fill-rule="evenodd" id="Ellipse 22 (Stroke)"/><path clip-rule="evenodd" d="M5.82868 5.75C5.32552 5.75 4.87141 6.05168 4.67639 6.51551L3.70048 8.8366C3.52804 9.24672 3.25868 9.60888 2.91549 9.89201L1.8409 10.7785C1.78334 10.826 1.75 10.8968 1.75 10.9714V16C1.75 16.1381 1.86193 16.25 2 16.25H11C11.4142 16.25 11.75 16.5858 11.75 17C11.75 17.4142 11.4142 17.75 11 17.75H2C1.0335 17.75 0.25 16.9665 0.25 16V10.9714C0.25 10.449 0.483373 9.95393 0.88633 9.62149L1.96092 8.73495C2.11691 8.60626 2.23935 8.44164 2.31773 8.25522L3.29364 5.93413C3.72269 4.91371 4.72173 4.25 5.82868 4.25H11C11.4142 4.25 11.75 4.58579 11.75 5C11.75 5.41421 11.4142 5.75 11 5.75H5.82868Z" fill="black" fill-rule="evenodd" id="Vector 22 (Stroke)"/><path clip-rule="evenodd" d="M0.25 12C0.25 11.5858 0.585786 11.25 1 11.25H3C3.9665 11.25 4.75 12.0335 4.75 13V14C4.75 14.4142 4.41421 14.75 4 14.75H1C0.585786 14.75 0.25 14.4142 0.25 14V12ZM1.75 12.75V13.25H3.25V13C3.25 12.8619 3.13807 12.75 3 12.75H1.75Z" fill="black" fill-rule="evenodd" id="Rectangle 20 (Stroke)"/><path clip-rule="evenodd" d="M2.25 9C2.25 8.58579 2.58579 8.25 3 8.25L11 8.25C11.4142 8.25 11.75 8.58579 11.75 9C11.75 9.41421 11.4142 9.75 11 9.75L3 9.75C2.58579 9.75 2.25 9.41421 2.25 9Z" fill="black" fill-rule="evenodd" id="Vector 23 (Stroke)"/><path clip-rule="evenodd" d="M1.25 17C1.25 16.5858 1.58579 16.25 2 16.25H5C5.41421 16.25 5.75 16.5858 5.75 17V19C5.75 19.9665 4.9665 20.75 4 20.75H3C2.0335 20.75 1.25 19.9665 1.25 19V17ZM2.75 17.75V19C2.75 19.1381 2.86193 19.25 3 19.25H4C4.13807 19.25 4.25 19.1381 4.25 19V17.75H2.75Z" fill="black" fill-rule="evenodd" id="Rectangle 21 (Stroke)"/></g></svg>